M48
INCH,TZ
T1C0.0157
T2C0.0315
T3C0.0360
T4C0.0394
T5C0.0433
T6C0.0472
T7C0.0512
%
G90
G05
T1
X26772Y-236024
X26969Y-211417
X33465Y-219291
X34055Y-220079
X35000Y-212000
X37500Y-211750
X37991Y-225395
X37992Y-222285
X38018Y-216535
X38172Y-227576
X38583Y-223142
X38976Y-216732
X39370Y-217126
X39500Y-216250
X39764Y-223535
X39872Y-220669
X40500Y-212035
X41000Y-211750
X41339Y-216535
X41656Y-214852
X41934Y-214562
X42520Y-212795
X42825Y-216339
X43110Y-222441
X43110Y-231890
X43307Y-223622
X44193Y-232087
X44215Y-231501
X44668Y-217152
X44882Y-216821
X45374Y-232087
X45472Y-216535
X47441Y-232087
X47933Y-231299
X49016Y-232087
X51181Y-224803
X52067Y-231299
X53258Y-225197
X53543Y-225591
X57185Y-228937
T2
X31000Y-219750
X31000Y-221000
X31000Y-222250
X31000Y-223500
X31000Y-224750
X31000Y-226000
X31000Y-227250
X31000Y-228500
X31000Y-229750
X31000Y-231000
X31000Y-232250
X31000Y-233500
X31500Y-235000
X31500Y-238000
X31500Y-240000
X31500Y-242000
X32000Y-215500
X32000Y-218500
X33000Y-215500
X33000Y-218500
X33500Y-211000
X33500Y-214000
X34000Y-215500
X34000Y-218500
X34500Y-211000
X34500Y-214000
X34500Y-235000
X34500Y-238000
X34500Y-240000
X34500Y-242000
X35000Y-215500
X35000Y-218500
X35000Y-219750
X35000Y-221000
X35000Y-222250
X35000Y-223500
X35000Y-224750
X35000Y-226000
X35000Y-227250
X35000Y-228500
X35000Y-229750
X35000Y-231000
X35000Y-232250
X35000Y-233500
X35500Y-211000
X35500Y-214000
X36000Y-215500
X36000Y-218500
X36500Y-211000
X36500Y-214000
X36800Y-221500
X36800Y-222500
X36800Y-223500
X36800Y-224500
X36800Y-225500
X36800Y-226500
X36800Y-228000
X36800Y-229000
X36800Y-230000
X36800Y-231000
X36800Y-232000
X36800Y-233000
X37000Y-215500
X37000Y-218500
X37500Y-211000
X37500Y-214000
X38000Y-215500
X38000Y-218500
X38500Y-211000
X38500Y-214000
X39000Y-215500
X39000Y-218500
X39000Y-221500
X39500Y-211000
X39500Y-214000
X40000Y-215500
X40000Y-218500
X40500Y-211000
X40500Y-214000
X40969Y-221500
X41000Y-215500
X41000Y-218500
X41500Y-211000
X41500Y-214000
X42500Y-211000
X42500Y-214000
X43500Y-226500
X43500Y-227750
X43500Y-229000
X43500Y-230500
X43500Y-233500
X44500Y-230500
X44500Y-233500
X45500Y-230500
X45500Y-233500
X46500Y-230500
X46500Y-233500
X47500Y-226500
X47500Y-227750
X47500Y-229000
X47500Y-230500
X47500Y-233500
X48000Y-220000
X48000Y-224000
X48500Y-226500
X48500Y-227750
X48500Y-229000
X48500Y-230500
X48500Y-233500
X49500Y-230500
X49500Y-233500
X50500Y-230500
X50500Y-233500
X52500Y-226500
X52500Y-227750
X52500Y-229000
X53000Y-231000
X53000Y-231787
X54516Y-224500
X55500Y-224500
T3
X39000Y-224000
X39000Y-225000
X39000Y-226000
X39000Y-227000
X39000Y-228000
X39000Y-229000
X39000Y-230000
X39000Y-231000
X39000Y-232000
X39000Y-233000
X42000Y-224000
X42000Y-225000
X42000Y-226000
X42000Y-227000
X42000Y-228000
X42000Y-229000
X42000Y-230000
X42000Y-231000
X42000Y-232000
X42000Y-233000
T4
X27000Y-210500
X28000Y-210500
X29000Y-210500
X30000Y-210500
X31000Y-210500
X36201Y-235906
X40925Y-235906
X42713Y-235866
X44000Y-216000
X44000Y-217969
X44000Y-220500
X44000Y-222000
X44000Y-223500
X44000Y-225000
X45000Y-220500
X45000Y-222000
X45000Y-223500
X45000Y-225000
X46000Y-220500
X46000Y-222000
X46000Y-223500
X46000Y-225000
X47437Y-235866
X47500Y-216031
X47500Y-218000
X49213Y-235866
X53937Y-235866
X55713Y-235866
X58051Y-222165
X58051Y-226890
X58500Y-231000
X58500Y-232000
X58500Y-233000
X60437Y-235866
T5
X53000Y-220500
X54000Y-220500
X55000Y-220500
X60000Y-219000
X61000Y-219000
X62000Y-219000
T6
X27250Y-244980
X28500Y-212500
X28500Y-214469
X28500Y-217000
X28500Y-218969
X28500Y-221500
X28500Y-223469
X28500Y-226000
X28500Y-227969
X28500Y-230500
X28500Y-232469
X28500Y-235000
X28500Y-236969
X28500Y-239500
X28500Y-241469
X29219Y-244980
X31187Y-244980
X33858Y-244980
X35827Y-244980
X37795Y-244980
X40256Y-244980
X42224Y-244980
X44193Y-244980
X45472Y-212598
X46654Y-244980
X47441Y-212598
X48622Y-244980
X50591Y-244980
X53051Y-244980
X55020Y-244980
X56988Y-244980
X59449Y-244980
X61417Y-244980
X62008Y-229094
X62008Y-231063
X62008Y-233031
X63386Y-244980
T7
X36201Y-240709
X38583Y-235138
X40945Y-240728
X42713Y-240669
X45094Y-235098
X47457Y-240689
X49213Y-240669
X50031Y-223484
X51594Y-235098
X52000Y-222500
X52000Y-224469
X53957Y-240689
X55713Y-240669
X57283Y-224508
X58094Y-235098
X60457Y-240689
X62854Y-226890
X62874Y-222146
T0
M30
