%TF.GenerationSoftware,KiCad,Pcbnew,(5.1.10-1-10_14)*%
%TF.CreationDate,2022-01-13T10:24:38-08:00*%
%TF.ProjectId,ElkIOBoard,456c6b49-4f42-46f6-9172-642e6b696361,rev?*%
%TF.SameCoordinates,Original*%
%TF.FileFunction,Legend,Bot*%
%TF.FilePolarity,Positive*%
%FSLAX46Y46*%
G04 Gerber Fmt 4.6, Leading zero omitted, Abs format (unit mm)*
G04 Created by KiCad (PCBNEW (5.1.10-1-10_14)) date 2022-01-13 10:24:38*
%MOMM*%
%LPD*%
G01*
G04 APERTURE LIST*
%ADD10C,0.500000*%
%ADD11C,0.150000*%
G04 APERTURE END LIST*
D10*
X79918364Y-548013606D02*
G75*
G02*
X85918364Y-542013606I0J6000000D01*
G01*
X104000000Y-605500000D02*
G75*
G03*
X104000000Y-605500000I-6000000J0D01*
G01*
X153000000Y-548500000D02*
G75*
G03*
X153000000Y-548500000I-6000000J0D01*
G01*
X153500000Y-605500000D02*
G75*
G03*
X153500000Y-605500000I-6000000J0D01*
G01*
D11*
X162890476Y-535504761D02*
X162795238Y-535552380D01*
X162604761Y-535552380D01*
X162509523Y-535504761D01*
X162461904Y-535409523D01*
X162461904Y-535361904D01*
X162509523Y-535266666D01*
X162604761Y-535219047D01*
X162747619Y-535219047D01*
X162842857Y-535171428D01*
X162890476Y-535076190D01*
X162890476Y-535028571D01*
X162842857Y-534933333D01*
X162747619Y-534885714D01*
X162604761Y-534885714D01*
X162509523Y-534933333D01*
X162176190Y-534885714D02*
X161795238Y-534885714D01*
X162033333Y-534552380D02*
X162033333Y-535409523D01*
X161985714Y-535504761D01*
X161890476Y-535552380D01*
X161795238Y-535552380D01*
X161080952Y-535504761D02*
X161176190Y-535552380D01*
X161366666Y-535552380D01*
X161461904Y-535504761D01*
X161509523Y-535409523D01*
X161509523Y-535028571D01*
X161461904Y-534933333D01*
X161366666Y-534885714D01*
X161176190Y-534885714D01*
X161080952Y-534933333D01*
X161033333Y-535028571D01*
X161033333Y-535123809D01*
X161509523Y-535219047D01*
X160700000Y-534885714D02*
X160461904Y-535552380D01*
X160223809Y-534885714D01*
X159461904Y-535504761D02*
X159557142Y-535552380D01*
X159747619Y-535552380D01*
X159842857Y-535504761D01*
X159890476Y-535409523D01*
X159890476Y-535028571D01*
X159842857Y-534933333D01*
X159747619Y-534885714D01*
X159557142Y-534885714D01*
X159461904Y-534933333D01*
X159414285Y-535028571D01*
X159414285Y-535123809D01*
X159890476Y-535219047D01*
X158366666Y-535076190D02*
X158414285Y-535028571D01*
X158509523Y-534980952D01*
X158604761Y-534980952D01*
X158700000Y-535028571D01*
X158747619Y-535076190D01*
X158795238Y-535171428D01*
X158795238Y-535266666D01*
X158747619Y-535361904D01*
X158700000Y-535409523D01*
X158604761Y-535457142D01*
X158509523Y-535457142D01*
X158414285Y-535409523D01*
X158366666Y-535361904D01*
X158366666Y-534980952D02*
X158366666Y-535361904D01*
X158319047Y-535409523D01*
X158271428Y-535409523D01*
X158176190Y-535361904D01*
X158128571Y-535266666D01*
X158128571Y-535028571D01*
X158223809Y-534885714D01*
X158366666Y-534790476D01*
X158557142Y-534742857D01*
X158747619Y-534790476D01*
X158890476Y-534885714D01*
X158985714Y-535028571D01*
X159033333Y-535219047D01*
X158985714Y-535409523D01*
X158890476Y-535552380D01*
X158747619Y-535647619D01*
X158557142Y-535695238D01*
X158366666Y-535647619D01*
X158223809Y-535552380D01*
X157271428Y-535504761D02*
X157366666Y-535552380D01*
X157557142Y-535552380D01*
X157652380Y-535504761D01*
X157700000Y-535457142D01*
X157747619Y-535361904D01*
X157747619Y-535076190D01*
X157700000Y-534980952D01*
X157652380Y-534933333D01*
X157557142Y-534885714D01*
X157366666Y-534885714D01*
X157271428Y-534933333D01*
X156842857Y-535552380D02*
X156842857Y-534885714D01*
X156842857Y-535076190D02*
X156795238Y-534980952D01*
X156747619Y-534933333D01*
X156652380Y-534885714D01*
X156557142Y-534885714D01*
X156080952Y-535552380D02*
X156176190Y-535504761D01*
X156223809Y-535457142D01*
X156271428Y-535361904D01*
X156271428Y-535076190D01*
X156223809Y-534980952D01*
X156176190Y-534933333D01*
X156080952Y-534885714D01*
X155938095Y-534885714D01*
X155842857Y-534933333D01*
X155795238Y-534980952D01*
X155747619Y-535076190D01*
X155747619Y-535361904D01*
X155795238Y-535457142D01*
X155842857Y-535504761D01*
X155938095Y-535552380D01*
X156080952Y-535552380D01*
X155414285Y-534885714D02*
X154890476Y-534885714D01*
X155414285Y-535552380D01*
X154890476Y-535552380D01*
X154509523Y-535457142D02*
X154461904Y-535504761D01*
X154509523Y-535552380D01*
X154557142Y-535504761D01*
X154509523Y-535457142D01*
X154509523Y-535552380D01*
X153604761Y-535504761D02*
X153700000Y-535552380D01*
X153890476Y-535552380D01*
X153985714Y-535504761D01*
X154033333Y-535457142D01*
X154080952Y-535361904D01*
X154080952Y-535076190D01*
X154033333Y-534980952D01*
X153985714Y-534933333D01*
X153890476Y-534885714D01*
X153700000Y-534885714D01*
X153604761Y-534933333D01*
X153033333Y-535552380D02*
X153128571Y-535504761D01*
X153176190Y-535457142D01*
X153223809Y-535361904D01*
X153223809Y-535076190D01*
X153176190Y-534980952D01*
X153128571Y-534933333D01*
X153033333Y-534885714D01*
X152890476Y-534885714D01*
X152795238Y-534933333D01*
X152747619Y-534980952D01*
X152700000Y-535076190D01*
X152700000Y-535361904D01*
X152747619Y-535457142D01*
X152795238Y-535504761D01*
X152890476Y-535552380D01*
X153033333Y-535552380D01*
X152271428Y-535457142D02*
X152223809Y-535504761D01*
X152271428Y-535552380D01*
X152319047Y-535504761D01*
X152271428Y-535457142D01*
X152271428Y-535552380D01*
X151366666Y-534885714D02*
X151366666Y-535552380D01*
X151795238Y-534885714D02*
X151795238Y-535409523D01*
X151747619Y-535504761D01*
X151652380Y-535552380D01*
X151509523Y-535552380D01*
X151414285Y-535504761D01*
X151366666Y-535457142D01*
X150890476Y-535552380D02*
X150890476Y-534552380D01*
X150795238Y-535171428D02*
X150509523Y-535552380D01*
X150509523Y-534885714D02*
X150890476Y-535266666D01*
D10*
X155676190Y-626257142D02*
X155390476Y-626352380D01*
X155295238Y-626447619D01*
X155200000Y-626638095D01*
X155200000Y-626923809D01*
X155295238Y-627114285D01*
X155390476Y-627209523D01*
X155580952Y-627304761D01*
X156342857Y-627304761D01*
X156342857Y-625304761D01*
X155676190Y-625304761D01*
X155485714Y-625400000D01*
X155390476Y-625495238D01*
X155295238Y-625685714D01*
X155295238Y-625876190D01*
X155390476Y-626066666D01*
X155485714Y-626161904D01*
X155676190Y-626257142D01*
X156342857Y-626257142D01*
X153676190Y-626257142D02*
X153390476Y-626352380D01*
X153295238Y-626447619D01*
X153200000Y-626638095D01*
X153200000Y-626923809D01*
X153295238Y-627114285D01*
X153390476Y-627209523D01*
X153580952Y-627304761D01*
X154342857Y-627304761D01*
X154342857Y-625304761D01*
X153676190Y-625304761D01*
X153485714Y-625400000D01*
X153390476Y-625495238D01*
X153295238Y-625685714D01*
X153295238Y-625876190D01*
X153390476Y-626066666D01*
X153485714Y-626161904D01*
X153676190Y-626257142D01*
X154342857Y-626257142D01*
X151200000Y-627114285D02*
X151295238Y-627209523D01*
X151580952Y-627304761D01*
X151771428Y-627304761D01*
X152057142Y-627209523D01*
X152247619Y-627019047D01*
X152342857Y-626828571D01*
X152438095Y-626447619D01*
X152438095Y-626161904D01*
X152342857Y-625780952D01*
X152247619Y-625590476D01*
X152057142Y-625400000D01*
X151771428Y-625304761D01*
X151580952Y-625304761D01*
X151295238Y-625400000D01*
X151200000Y-625495238D01*
X148819047Y-627304761D02*
X148819047Y-625304761D01*
X148152380Y-626733333D01*
X147485714Y-625304761D01*
X147485714Y-627304761D01*
X146533333Y-627304761D02*
X146533333Y-625304761D01*
X144438095Y-627114285D02*
X144533333Y-627209523D01*
X144819047Y-627304761D01*
X145009523Y-627304761D01*
X145295238Y-627209523D01*
X145485714Y-627019047D01*
X145580952Y-626828571D01*
X145676190Y-626447619D01*
X145676190Y-626161904D01*
X145580952Y-625780952D01*
X145485714Y-625590476D01*
X145295238Y-625400000D01*
X145009523Y-625304761D01*
X144819047Y-625304761D01*
X144533333Y-625400000D01*
X144438095Y-625495238D01*
X142438095Y-627304761D02*
X143104761Y-626352380D01*
X143580952Y-627304761D02*
X143580952Y-625304761D01*
X142819047Y-625304761D01*
X142628571Y-625400000D01*
X142533333Y-625495238D01*
X142438095Y-625685714D01*
X142438095Y-625971428D01*
X142533333Y-626161904D01*
X142628571Y-626257142D01*
X142819047Y-626352380D01*
X143580952Y-626352380D01*
X141200000Y-625304761D02*
X140819047Y-625304761D01*
X140628571Y-625400000D01*
X140438095Y-625590476D01*
X140342857Y-625971428D01*
X140342857Y-626638095D01*
X140438095Y-627019047D01*
X140628571Y-627209523D01*
X140819047Y-627304761D01*
X141200000Y-627304761D01*
X141390476Y-627209523D01*
X141580952Y-627019047D01*
X141676190Y-626638095D01*
X141676190Y-625971428D01*
X141580952Y-625590476D01*
X141390476Y-625400000D01*
X141200000Y-625304761D01*
X136533333Y-625209523D02*
X138247619Y-627780952D01*
X134342857Y-626257142D02*
X133676190Y-626257142D01*
X133390476Y-627304761D02*
X134342857Y-627304761D01*
X134342857Y-625304761D01*
X133390476Y-625304761D01*
X131580952Y-627304761D02*
X132533333Y-627304761D01*
X132533333Y-625304761D01*
X130914285Y-626257142D02*
X130247619Y-626257142D01*
X129961904Y-627304761D02*
X130914285Y-627304761D01*
X130914285Y-625304761D01*
X129961904Y-625304761D01*
X127961904Y-627114285D02*
X128057142Y-627209523D01*
X128342857Y-627304761D01*
X128533333Y-627304761D01*
X128819047Y-627209523D01*
X129009523Y-627019047D01*
X129104761Y-626828571D01*
X129200000Y-626447619D01*
X129200000Y-626161904D01*
X129104761Y-625780952D01*
X129009523Y-625590476D01*
X128819047Y-625400000D01*
X128533333Y-625304761D01*
X128342857Y-625304761D01*
X128057142Y-625400000D01*
X127961904Y-625495238D01*
X127390476Y-625304761D02*
X126247619Y-625304761D01*
X126819047Y-627304761D02*
X126819047Y-625304761D01*
X124438095Y-627304761D02*
X125104761Y-626352380D01*
X125580952Y-627304761D02*
X125580952Y-625304761D01*
X124819047Y-625304761D01*
X124628571Y-625400000D01*
X124533333Y-625495238D01*
X124438095Y-625685714D01*
X124438095Y-625971428D01*
X124533333Y-626161904D01*
X124628571Y-626257142D01*
X124819047Y-626352380D01*
X125580952Y-626352380D01*
X123200000Y-625304761D02*
X122819047Y-625304761D01*
X122628571Y-625400000D01*
X122438095Y-625590476D01*
X122342857Y-625971428D01*
X122342857Y-626638095D01*
X122438095Y-627019047D01*
X122628571Y-627209523D01*
X122819047Y-627304761D01*
X123200000Y-627304761D01*
X123390476Y-627209523D01*
X123580952Y-627019047D01*
X123676190Y-626638095D01*
X123676190Y-625971428D01*
X123580952Y-625590476D01*
X123390476Y-625400000D01*
X123200000Y-625304761D01*
X121485714Y-627304761D02*
X121485714Y-625304761D01*
X120342857Y-627304761D01*
X120342857Y-625304761D01*
X116723809Y-627304761D02*
X117390476Y-626352380D01*
X117866666Y-627304761D02*
X117866666Y-625304761D01*
X117104761Y-625304761D01*
X116914285Y-625400000D01*
X116819047Y-625495238D01*
X116723809Y-625685714D01*
X116723809Y-625971428D01*
X116819047Y-626161904D01*
X116914285Y-626257142D01*
X117104761Y-626352380D01*
X117866666Y-626352380D01*
X115866666Y-626257142D02*
X115200000Y-626257142D01*
X114914285Y-627304761D02*
X115866666Y-627304761D01*
X115866666Y-625304761D01*
X114914285Y-625304761D01*
X113104761Y-627304761D02*
X114057142Y-627304761D01*
X114057142Y-625304761D01*
X112533333Y-626733333D02*
X111580952Y-626733333D01*
X112723809Y-627304761D02*
X112057142Y-625304761D01*
X111390476Y-627304761D01*
X110342857Y-626352380D02*
X110342857Y-627304761D01*
X111009523Y-625304761D02*
X110342857Y-626352380D01*
X109676190Y-625304761D01*
X106057142Y-625209523D02*
X107771428Y-627780952D01*
X103961904Y-627209523D02*
X103676190Y-627304761D01*
X103200000Y-627304761D01*
X103009523Y-627209523D01*
X102914285Y-627114285D01*
X102819047Y-626923809D01*
X102819047Y-626733333D01*
X102914285Y-626542857D01*
X103009523Y-626447619D01*
X103200000Y-626352380D01*
X103580952Y-626257142D01*
X103771428Y-626161904D01*
X103866666Y-626066666D01*
X103961904Y-625876190D01*
X103961904Y-625685714D01*
X103866666Y-625495238D01*
X103771428Y-625400000D01*
X103580952Y-625304761D01*
X103104761Y-625304761D01*
X102819047Y-625400000D01*
X102152380Y-625304761D02*
X101676190Y-627304761D01*
X101295238Y-625876190D01*
X100914285Y-627304761D01*
X100438095Y-625304761D01*
X99676190Y-627304761D02*
X99676190Y-625304761D01*
X99009523Y-625304761D02*
X97866666Y-625304761D01*
X98438095Y-627304761D02*
X98438095Y-625304761D01*
X96057142Y-627114285D02*
X96152380Y-627209523D01*
X96438095Y-627304761D01*
X96628571Y-627304761D01*
X96914285Y-627209523D01*
X97104761Y-627019047D01*
X97200000Y-626828571D01*
X97295238Y-626447619D01*
X97295238Y-626161904D01*
X97200000Y-625780952D01*
X97104761Y-625590476D01*
X96914285Y-625400000D01*
X96628571Y-625304761D01*
X96438095Y-625304761D01*
X96152380Y-625400000D01*
X96057142Y-625495238D01*
X95200000Y-627304761D02*
X95200000Y-625304761D01*
X95200000Y-626257142D02*
X94057142Y-626257142D01*
X94057142Y-627304761D02*
X94057142Y-625304761D01*
X91580952Y-627304761D02*
X91580952Y-625304761D01*
X89200000Y-625209523D02*
X90914285Y-627780952D01*
X88152380Y-625304761D02*
X87771428Y-625304761D01*
X87580952Y-625400000D01*
X87390476Y-625590476D01*
X87295238Y-625971428D01*
X87295238Y-626638095D01*
X87390476Y-627019047D01*
X87580952Y-627209523D01*
X87771428Y-627304761D01*
X88152380Y-627304761D01*
X88342857Y-627209523D01*
X88533333Y-627019047D01*
X88628571Y-626638095D01*
X88628571Y-625971428D01*
X88533333Y-625590476D01*
X88342857Y-625400000D01*
X88152380Y-625304761D01*
X84247619Y-626257142D02*
X83961904Y-626352380D01*
X83866666Y-626447619D01*
X83771428Y-626638095D01*
X83771428Y-626923809D01*
X83866666Y-627114285D01*
X83961904Y-627209523D01*
X84152380Y-627304761D01*
X84914285Y-627304761D01*
X84914285Y-625304761D01*
X84247619Y-625304761D01*
X84057142Y-625400000D01*
X83961904Y-625495238D01*
X83866666Y-625685714D01*
X83866666Y-625876190D01*
X83961904Y-626066666D01*
X84057142Y-626161904D01*
X84247619Y-626257142D01*
X84914285Y-626257142D01*
X82533333Y-625304761D02*
X82152380Y-625304761D01*
X81961904Y-625400000D01*
X81771428Y-625590476D01*
X81676190Y-625971428D01*
X81676190Y-626638095D01*
X81771428Y-627019047D01*
X81961904Y-627209523D01*
X82152380Y-627304761D01*
X82533333Y-627304761D01*
X82723809Y-627209523D01*
X82914285Y-627019047D01*
X83009523Y-626638095D01*
X83009523Y-625971428D01*
X82914285Y-625590476D01*
X82723809Y-625400000D01*
X82533333Y-625304761D01*
X80914285Y-626733333D02*
X79961904Y-626733333D01*
X81104761Y-627304761D02*
X80438095Y-625304761D01*
X79771428Y-627304761D01*
X77961904Y-627304761D02*
X78628571Y-626352380D01*
X79104761Y-627304761D02*
X79104761Y-625304761D01*
X78342857Y-625304761D01*
X78152380Y-625400000D01*
X78057142Y-625495238D01*
X77961904Y-625685714D01*
X77961904Y-625971428D01*
X78057142Y-626161904D01*
X78152380Y-626257142D01*
X78342857Y-626352380D01*
X79104761Y-626352380D01*
X77104761Y-627304761D02*
X77104761Y-625304761D01*
X76628571Y-625304761D01*
X76342857Y-625400000D01*
X76152380Y-625590476D01*
X76057142Y-625780952D01*
X75961904Y-626161904D01*
X75961904Y-626447619D01*
X76057142Y-626828571D01*
X76152380Y-627019047D01*
X76342857Y-627209523D01*
X76628571Y-627304761D01*
X77104761Y-627304761D01*
M02*
